<svg width="40" height="40" viewBox="0 0 40 40" fill="none" xmlns="http://www.w3.org/2000/svg">
<path d="M0 5C0 2.23858 2.23858 0 5 0H20C31.0457 0 40 8.95431 40 20V35C40 37.7614 37.7614 40 35 40H20C8.95431 40 0 31.0457 0 20V5Z" fill="#5BCCA2"/>
<path d="M22.4189 27.3008C22.3054 27.0443 22.2061 26.7831 22.121 26.5172C22.0359 26.2417 21.9697 25.9663 21.9224 25.6908C21.4305 26.2607 20.83 26.7214 20.1206 27.0728C19.4207 27.4243 18.6168 27.6 17.7088 27.6C16.2049 27.6 15.0085 27.1915 14.1194 26.3747C13.2398 25.5483 12.8 24.4275 12.8 23.0123C12.8 21.5685 13.3769 20.4525 14.5308 19.6641C15.6847 18.8757 17.3777 18.4815 19.6099 18.4815H21.7237V16.9713C21.7237 16.2304 21.5109 15.6558 21.0853 15.2473C20.6597 14.8389 20.0307 14.6347 19.1984 14.6347C18.7255 14.6347 18.3046 14.6917 17.9358 14.8057C17.5669 14.9102 17.269 15.0384 17.042 15.1904L16.7724 16.8431H13.6512L13.6654 13.4237C14.4221 12.9108 15.2875 12.4786 16.2617 12.1271C17.2453 11.7757 18.3141 11.6 19.468 11.6C21.3691 11.6 22.9107 12.0701 24.093 13.0105C25.2847 13.9413 25.8806 15.2711 25.8806 16.9998V23.3685C25.8806 23.6059 25.8806 23.8291 25.8806 24.0381C25.8901 24.2471 25.909 24.4465 25.9373 24.6365L27.2 24.8075V27.3008H22.4189ZM18.8296 24.5225C19.4538 24.5225 20.0213 24.3895 20.532 24.1236C21.0428 23.8481 21.44 23.5062 21.7237 23.0977V20.7469H19.6099C18.7302 20.7469 18.0635 20.9559 17.6095 21.3738C17.1555 21.7822 16.9285 22.2761 16.9285 22.8555C16.9285 23.378 17.094 23.7864 17.425 24.0808C17.7655 24.3753 18.2337 24.5225 18.8296 24.5225Z" fill="black" fill-opacity="0.3"/>
<path d="M22.4189 26.1008C22.3054 25.8444 22.2061 25.5832 22.121 25.3172C22.0359 25.0418 21.9697 24.7663 21.9224 24.4909C21.4305 25.0608 20.83 25.5214 20.1206 25.8729C19.4207 26.2243 18.6168 26.4 17.7088 26.4C16.2049 26.4 15.0085 25.9916 14.1194 25.1747C13.2398 24.3484 12.8 23.2276 12.8 21.8123C12.8 20.3686 13.3769 19.2525 14.5308 18.4641C15.6847 17.6758 17.3777 17.2816 19.6099 17.2816H21.7237V15.7714C21.7237 15.0305 21.5109 14.4558 21.0853 14.0474C20.6597 13.639 20.0307 13.4348 19.1984 13.4348C18.7255 13.4348 18.3046 13.4917 17.9358 13.6057C17.5669 13.7102 17.269 13.8384 17.042 13.9904L16.7724 15.6431H13.6512L13.6654 12.2237C14.4221 11.7108 15.2875 11.2786 16.2617 10.9272C17.2453 10.5757 18.3141 10.4 19.468 10.4C21.3691 10.4 22.9107 10.8702 24.093 11.8105C25.2847 12.7414 25.8806 14.0711 25.8806 15.7998V22.1685C25.8806 22.406 25.8806 22.6292 25.8806 22.8381C25.8901 23.0471 25.909 23.2466 25.9373 23.4365L27.2 23.6075V26.1008H22.4189ZM18.8296 23.3226C19.4538 23.3226 20.0213 23.1896 20.532 22.9236C21.0428 22.6482 21.44 22.3062 21.7237 21.8978V19.547H19.6099C18.7302 19.547 18.0635 19.7559 17.6095 20.1738C17.1555 20.5823 16.9285 21.0762 16.9285 21.6556C16.9285 22.178 17.094 22.5864 17.425 22.8809C17.7655 23.1753 18.2337 23.3226 18.8296 23.3226Z" fill="white"/>
</svg>
